<svg width="820" height="220" viewBox="0 0 820 220" fill="none" xmlns="http://www.w3.org/2000/svg">
  <defs>
    <linearGradient id="homevoxWordGradient" x1="520" y1="56" x2="726" y2="186" gradientUnits="userSpaceOnUse">
      <stop stop-color="#8FE8FF"/>
      <stop offset="0.55" stop-color="#4CC3FF"/>
      <stop offset="1" stop-color="#207BFF"/>
    </linearGradient>
  </defs>

  <g transform="translate(14 12)">
    <path d="M28 96L128 20L228 96" stroke="#F8FBFF" stroke-width="18" stroke-linecap="round" stroke-linejoin="round"/>
    <path d="M70 96V188H186V96" stroke="#F8FBFF" stroke-width="18" stroke-linecap="round" stroke-linejoin="round"/>
    <path d="M84 86C96.8 72.8 112.5 66 128 66C143.5 66 159.2 72.8 172 86" stroke="#F8FBFF" stroke-width="16" stroke-linecap="round"/>
    <path d="M96 110C105.7 100.5 116.2 96 128 96C139.8 96 150.3 100.5 160 110" stroke="#F8FBFF" stroke-width="16" stroke-linecap="round"/>
    <path d="M108 134C114.6 127.6 121.1 124 128 124C134.9 124 141.4 127.6 148 134" stroke="#F8FBFF" stroke-width="16" stroke-linecap="round"/>
    <circle cx="128" cy="160" r="11.5" fill="#F8FBFF"/>
  </g>

  <text x="290" y="148" fill="#F8FBFF" font-size="118" font-weight="800" font-family="Manrope, Arial, sans-serif" letter-spacing="-0.055em">Home</text>
  <text x="560" y="148" fill="url(#homevoxWordGradient)" font-size="118" font-weight="800" font-family="Manrope, Arial, sans-serif" letter-spacing="-0.055em">Vox</text>
</svg>
